<svg width="1124" height="398" viewBox="0 0 1124 398" fill="none" xmlns="http://www.w3.org/2000/svg">
<path d="M1115.78 185.459C1021.36 185.459 972.416 78.5166 877.815 79.6132C805.861 80.4473 706.597 189.3 657.619 226.296C616.27 257.53 568.398 290.684 515.108 285.125C474.533 280.879 440.812 254.699 413.946 226.498C379.009 189.603 350.595 146.947 309.688 115.612C268.781 84.1761 209.411 65.8805 161.538 87.6129C131.577 101.259 111.676 127.742 88.6793 149.98C65.6829 172.217 46.8878 185.56 1.00553 185.56" stroke="url(#paint0_linear_2498_17260)" stroke-width="2.44172" stroke-miterlimit="10"/>
<path d="M1115.9 185.432C1022.14 185.432 975.156 83.1387 882.065 83.8463C804.342 84.5539 710.698 192.306 661.83 229.099C620.813 260.03 573.272 292.679 520.424 287.221C479.959 283.178 446.239 257.301 419.373 229.403C384.104 192.811 355.69 150.256 314.894 118.719C274.097 87.182 213.621 66.5616 164.754 87.7885C133.797 101.232 113.454 129.838 89.7942 151.672C66.1344 173.404 47.5603 185.534 0.904135 185.534" stroke="url(#paint1_linear_2498_17260)" stroke-width="2.44172" stroke-miterlimit="10"/>
<path d="M1116 185.446C1022.91 185.446 976.142 86.0834 884.267 87.4986C807.428 88.9137 715 195.352 666.133 231.842C625.336 262.368 578.238 294.512 525.832 289.256C485.478 285.314 451.757 259.841 424.891 232.246C389.402 195.958 360.767 153.504 320.191 121.765C279.616 90.0257 218.034 67.2825 168.172 87.903C136.33 101.145 115.545 131.772 91.0008 153.302C66.6777 174.529 48.2143 185.345 1.00534 185.345" stroke="url(#paint2_linear_2498_17260)" stroke-width="2.44172" stroke-miterlimit="10"/>
<path d="M1116.23 185.399C1023.8 185.399 977.363 88.9684 886.483 91.0911C810.418 93.2138 719.206 198.338 670.449 234.525C629.985 264.748 583.218 296.386 531.365 291.231C491.232 287.39 457.512 262.322 430.535 235.03C394.824 198.944 365.968 156.692 325.614 124.852C285.26 93.0116 222.572 67.9436 171.604 88.1598C138.768 101.199 117.541 133.949 92.2224 155.075C67.3465 175.898 48.883 185.399 1.01065 185.399" stroke="url(#paint3_linear_2498_17260)" stroke-width="2.44172" stroke-miterlimit="10"/>
<path d="M1116.34 185.411C1024.58 185.411 978.365 91.9115 888.701 94.7418C813.52 97.5721 723.525 201.382 674.768 237.266C634.635 267.085 588.2 298.217 536.789 293.265C496.767 289.525 463.157 264.861 436.07 237.872C400.138 202.09 371.06 159.939 330.927 127.896C290.794 95.8537 227.001 68.5619 175.038 88.2727C141.207 101.11 119.537 135.983 93.4452 156.704C67.9059 177.022 49.6635 185.31 1.12783 185.31" stroke="url(#paint4_linear_2498_17260)" stroke-width="2.44172" stroke-miterlimit="10"/>
<path d="M1116.46 185.453C1025.46 185.453 979.361 94.8842 890.913 98.5231C816.617 102.061 727.617 204.355 679.081 240.238C639.169 269.653 593.176 300.381 542.208 295.53C502.296 291.891 468.797 267.631 441.599 240.946C405.446 205.467 376.258 163.417 336.236 131.172C296.324 99.0286 231.314 69.513 178.356 88.6173C143.641 101.252 121.529 138.147 94.5522 158.565C68.3496 178.377 50.2178 185.453 1.01876 185.453" stroke="url(#paint5_linear_2498_17260)" stroke-width="2.44172" stroke-miterlimit="10"/>
<path d="M1116.67 185.402C1026.34 185.402 980.458 97.7646 893.116 102.111C819.594 106.458 731.92 207.336 683.385 242.917C643.804 271.927 598.143 302.049 547.617 297.5C507.926 293.861 474.316 270.107 447.119 243.725C410.744 208.549 381.335 166.601 341.534 134.255C301.733 101.909 235.728 70.1697 181.775 88.8696C146.064 101.201 123.51 140.32 95.7598 160.334C69.0043 179.64 50.9831 185.503 1.12069 185.503" stroke="url(#paint6_linear_2498_17260)" stroke-width="2.44172" stroke-miterlimit="10"/>
<path d="M1116.78 185.433C1027.12 185.433 981.569 100.828 895.332 105.781C822.694 110.835 736.126 210.298 687.59 245.677C648.231 274.384 603.012 304 552.929 299.553C513.348 296.015 479.849 272.665 452.54 246.586C415.945 211.714 386.315 169.866 346.735 137.318C307.154 104.77 240.045 70.8069 184.986 89.0015C148.28 101.131 125.394 142.372 96.7592 161.982C69.3404 180.783 51.4296 185.433 0.903827 185.433" stroke="url(#paint7_linear_2498_17260)" stroke-width="2.44172" stroke-miterlimit="10"/>
<path d="M1116.89 185.429C1027.89 185.429 982.558 103.756 897.538 109.517C825.674 115.279 740.322 213.428 691.897 248.504C652.869 276.806 607.982 305.917 558.451 301.672C519.092 298.235 485.482 275.29 458.173 249.514C421.357 214.945 391.616 173.198 352.146 140.549C312.787 107.9 244.461 71.6123 188.518 89.3014C150.817 101.229 127.489 144.593 98.0801 163.798C70.1085 182.093 52.3084 185.53 1.11923 185.53" stroke="url(#paint8_linear_2498_17260)" stroke-width="2.44172" stroke-miterlimit="10"/>
<path d="M1117 185.422C1028.66 185.422 983.553 106.68 899.638 113.149C828.659 119.619 744.523 216.353 696.098 251.226C657.291 279.225 612.957 307.831 563.758 303.687C524.509 300.351 491.009 277.81 463.591 252.338C426.553 217.97 396.591 176.426 357.343 143.575C318.205 110.723 248.773 72.2117 191.724 89.4965C153.028 101.222 129.369 146.607 99.1858 165.509C70.5508 183.401 52.8613 185.422 1.00881 185.422" stroke="url(#paint9_linear_2498_17260)" stroke-width="2.44172" stroke-miterlimit="10"/>
<path d="M1117.22 185.454C1029.55 185.455 984.662 109.644 901.964 116.821C831.869 123.997 748.839 219.418 700.524 254.088C662.049 281.683 618.046 309.784 569.29 305.842C530.151 302.607 496.762 280.47 469.233 255.301C431.974 221.237 401.792 179.794 362.764 146.741C323.736 113.788 253.199 72.9517 195.266 89.7311C155.575 101.153 131.473 148.762 100.516 167.26C71.3285 184.646 53.7495 185.455 1.2336 185.455" stroke="url(#paint10_linear_2498_17260)" stroke-width="2.44172" stroke-miterlimit="10"/>
<path d="M1117.33 185.422C1030.44 185.422 985.769 112.543 904.176 120.427C834.855 128.312 753.041 222.317 704.837 256.785C666.694 283.976 623.022 311.571 574.708 307.831C535.791 304.698 502.291 282.965 474.762 258.099C437.282 224.338 406.989 182.895 368.182 149.842C329.376 116.788 257.733 73.627 198.694 89.901C158.119 101.121 133.575 150.853 101.733 168.946C71.8823 185.827 54.4139 185.422 1.23464 185.422" stroke="url(#paint11_linear_2498_17260)" stroke-width="2.44172" stroke-miterlimit="10"/>
<path d="M1117.44 185.44C1031.21 185.44 986.763 115.593 906.276 124.185C837.839 132.777 757.241 225.468 709.037 259.633C671.115 286.521 627.886 313.61 580.014 309.971C541.208 307.04 507.819 285.611 480.179 261.048C442.367 227.591 411.963 186.248 373.378 152.993C334.793 119.737 261.934 74.3521 202.01 90.2218C160.44 101.24 135.564 153.094 102.838 170.783C72.4346 187.259 54.9661 185.541 1.12356 185.541" stroke="url(#paint12_linear_2498_17260)" stroke-width="2.44172" stroke-miterlimit="10"/>
<path d="M1117.56 185.453C1031.99 185.453 987.767 118.537 908.496 127.837C840.833 137.136 761.451 228.412 713.358 262.375C675.767 288.858 632.87 315.442 585.551 311.905C546.965 309.074 513.466 288.05 485.715 263.79C447.683 230.636 417.058 189.395 378.693 155.937C340.219 122.479 266.365 74.8703 205.336 90.2346C162.77 100.949 137.452 155.027 103.953 172.312C72.9959 188.283 55.638 185.352 1.1321 185.352" stroke="url(#paint13_linear_2498_17260)" stroke-width="2.44172" stroke-miterlimit="10"/>
<path d="M1117.78 185.404C1032.87 185.404 988.864 121.42 910.809 131.427C844.031 141.434 765.865 231.396 717.772 265.056C680.513 291.235 637.948 317.314 591.07 313.877C552.596 311.148 519.207 290.528 491.346 266.572C453.092 233.721 422.246 192.581 384.103 159.022C345.849 125.463 270.779 75.5291 208.866 90.388C165.305 100.9 139.655 157.101 105.271 173.982C73.6511 189.447 56.4038 185.303 1.23451 185.303" stroke="url(#paint14_linear_2498_17260)" stroke-width="2.44172" stroke-miterlimit="10"/>
<path d="M1117.89 185.434C1033.64 185.434 989.97 124.381 912.909 135.096C847.016 145.81 769.956 234.458 721.973 267.916C684.935 293.692 642.812 319.265 596.377 316.03C558.013 313.402 524.624 293.186 496.763 269.533C458.288 236.985 427.331 195.946 389.299 162.185C351.266 128.425 274.98 76.2669 212.071 90.7214C167.516 100.931 141.534 159.355 106.266 175.831C74.093 190.892 56.9563 185.434 1.12367 185.434" stroke="url(#paint15_linear_2498_17260)" stroke-width="2.44172" stroke-miterlimit="10"/>
<path d="M1118 185.453C1034.42 185.453 990.971 127.331 915.127 138.855C850.007 150.277 774.163 237.509 726.18 270.765C689.475 296.237 647.683 321.305 601.69 318.172C563.547 315.645 530.158 295.833 502.187 272.483C463.491 240.239 432.313 199.301 394.501 165.439C356.69 131.577 279.298 76.9931 215.395 91.0434C169.844 101.05 143.531 161.598 107.378 177.67C74.6524 192.225 57.5157 185.554 1.01967 185.554" stroke="url(#paint16_linear_2498_17260)" stroke-width="2.44172" stroke-miterlimit="10"/>
<path d="M1118.22 185.419C1035.41 185.419 992.067 130.33 917.328 142.459C853.093 154.589 778.465 240.508 730.483 273.46C694.108 298.528 652.649 323.091 607.098 320.159C569.065 317.733 535.676 298.326 507.705 275.381C468.677 243.338 437.389 202.602 399.799 168.538C362.208 134.474 283.6 77.6666 218.702 91.2114C172.156 100.915 145.511 163.686 108.584 179.354C75.306 193.505 58.2798 185.419 1.12049 185.419" stroke="url(#paint17_linear_2498_17260)" stroke-width="2.44172" stroke-miterlimit="10"/>
<path d="M1118.32 185.411C1036.18 185.411 993.061 133.254 919.538 146.091C856.077 159.029 782.665 243.432 734.793 276.182C698.64 300.846 657.623 325.004 612.625 322.174C574.703 319.849 541.424 300.846 513.342 278.204C474.093 246.464 442.695 205.83 405.215 171.564C367.735 137.297 288.132 78.2659 222.238 91.4064C174.698 100.908 147.611 165.802 109.91 181.065C76.0786 194.711 59.0524 185.412 1.22968 185.412" stroke="url(#paint18_linear_2498_17260)" stroke-width="2.44172" stroke-miterlimit="10"/>
<path d="M1118.44 185.476C1036.96 185.476 994.173 136.25 921.756 149.896C859.179 163.542 786.984 246.63 739.112 279.077C703.29 303.438 662.604 326.989 618.049 324.361C580.348 322.138 546.959 303.539 518.877 281.2C479.407 249.764 447.787 209.23 410.528 174.863C373.27 140.495 292.451 79.0384 225.562 91.7745C177.026 100.973 149.608 168.091 111.022 182.848C76.5276 196.09 59.612 185.476 1.23646 185.476" stroke="url(#paint19_linear_2498_17260)" stroke-width="2.44172" stroke-miterlimit="10"/>
<path d="M1118.55 185.453C1037.73 185.453 995.163 139.158 923.852 153.511C862.16 167.865 791.07 249.538 743.308 281.884C707.818 305.84 667.464 328.987 623.351 326.46C585.761 324.338 552.482 306.143 524.289 284.107C484.598 252.975 452.757 212.542 415.72 177.973C378.572 143.403 296.647 79.7221 228.874 91.9529C179.343 100.949 151.592 170.189 112.123 184.543C77.0752 197.279 60.2701 185.453 1.12062 185.453" stroke="url(#paint20_linear_2498_17260)" stroke-width="2.44172" stroke-miterlimit="10"/>
<path d="M1118.77 185.457C1038.62 185.457 996.271 142.094 926.176 157.155C865.258 172.216 795.384 252.575 747.733 284.618C712.464 308.271 672.552 330.812 628.881 328.487C591.512 326.465 558.123 308.675 529.93 286.943C490.018 256.113 457.956 215.782 421.139 181.01C384.212 146.339 301.182 80.2325 232.303 92.16C181.777 100.853 153.695 172.317 113.341 186.266C77.7408 198.598 60.9357 185.458 1.12288 185.458" stroke="url(#paint21_linear_2498_17260)" stroke-width="2.44172" stroke-miterlimit="10"/>
<path d="M1118.88 185.492C1039.39 185.492 997.373 145.161 928.383 160.828C868.35 176.597 799.692 255.642 752.041 287.381C717.104 310.63 677.523 332.767 634.295 330.543C597.036 328.622 563.757 311.236 535.454 289.807C495.21 259.281 463.148 219.051 426.442 184.178C389.736 149.305 305.49 80.9744 235.727 92.3965C184.206 100.786 155.792 174.474 114.553 188.019C78.4003 199.946 61.7058 185.492 1.22962 185.492" stroke="url(#paint22_linear_2498_17260)" stroke-width="2.44172" stroke-miterlimit="10"/>
<path d="M1118.99 185.392C1040.28 185.392 998.373 147.992 930.49 164.469C871.23 180.945 803.788 258.575 756.248 290.112C721.643 313.057 682.394 334.587 639.607 332.566C602.459 330.746 569.181 313.765 540.877 292.639C500.412 262.416 468.129 222.287 431.644 187.212C395.16 152.238 309.697 81.4812 238.939 92.499C186.533 100.687 157.677 176.598 115.554 189.638C78.8483 201.06 62.1538 185.392 1.01423 185.392" stroke="url(#paint23_linear_2498_17260)" stroke-width="2.44172" stroke-miterlimit="10"/>
<path d="M1119.11 185.424C1041.05 185.424 999.372 150.955 932.705 168.139C874.329 185.323 808.104 261.639 760.563 292.873C726.29 315.414 687.373 336.54 645.139 334.619C608.212 332.901 574.823 316.324 546.52 295.501C505.834 265.581 473.329 225.553 437.065 190.377C400.802 155.201 314.234 82.2206 242.48 92.834C189.08 100.718 159.892 178.854 116.884 191.489C79.6258 202.507 63.0419 185.424 1.23903 185.424" stroke="url(#paint24_linear_2498_17260)" stroke-width="2.44172" stroke-miterlimit="10"/>
<path d="M1119.32 185.417C1041.93 185.417 1000.47 153.88 935.015 171.771C877.524 189.663 812.405 264.665 764.974 295.696C730.922 317.934 692.447 338.453 650.656 336.634C613.839 335.017 580.561 318.844 552.147 298.325C511.129 268.708 478.625 228.68 442.472 193.403C406.319 158.126 318.645 82.7193 245.897 92.9284C191.501 100.509 161.982 180.869 118.2 193.099C80.2782 203.713 63.8047 185.316 1.33851 185.316" stroke="url(#paint25_linear_2498_17260)" stroke-width="2.44172" stroke-miterlimit="10"/>
<path d="M1119.44 185.406C1042.71 185.406 1001.58 156.8 937.122 175.399C880.405 193.998 816.612 267.585 769.071 298.414C735.351 320.248 697.207 340.363 655.858 338.644C619.152 337.128 585.874 321.36 557.46 301.143C516.221 271.83 483.495 231.903 447.564 196.424C411.632 160.944 322.742 83.3145 249.109 93.1194C193.718 100.498 163.867 182.98 119.201 194.807C80.7265 204.915 64.3637 185.305 1.23407 185.305" stroke="url(#paint26_linear_2498_17260)" stroke-width="2.44172" stroke-miterlimit="10"/>
<path d="M1119.55 185.428C1043.48 185.428 1002.57 159.754 939.333 179.161C883.5 198.468 820.813 270.741 773.383 301.267C739.994 322.797 702.183 342.306 661.275 340.79C624.791 339.476 591.512 324.01 562.988 304.097C521.528 275.087 488.581 235.261 452.87 199.681C417.049 163.999 327.164 84.0444 252.426 93.4449C196.04 100.521 165.857 185.327 120.307 196.648C81.2793 206.352 64.9165 185.428 1.1236 185.428" stroke="url(#paint27_linear_2498_17260)" stroke-width="2.44172" stroke-miterlimit="10"/>
<path d="M1119.76 185.416C1044.36 185.416 1003.68 162.774 941.54 182.788C886.482 202.802 825.121 273.761 777.691 303.984C744.634 325.11 707.154 344.214 666.689 342.799C630.315 341.586 597.037 326.626 568.402 306.915C526.61 278.209 493.663 238.484 458.063 202.701C422.463 166.918 331.362 84.6387 255.739 93.5339C198.358 100.306 167.733 187.337 121.409 198.254C81.8284 207.553 65.4656 185.315 1.11987 185.315" stroke="url(#paint28_linear_2498_17260)" stroke-width="2.44172" stroke-miterlimit="10"/>
<path d="M1119.87 185.397C1045.25 185.397 1004.67 165.686 943.753 186.408C889.579 207.129 829.324 276.673 782.005 306.795C749.168 327.618 712.131 346.115 672.219 344.903C635.955 343.791 602.677 329.235 574.042 309.827C532.029 281.424 498.861 241.8 463.482 205.815C428.103 169.831 335.786 85.226 259.168 93.8179C200.792 100.287 169.836 189.642 122.627 200.054C82.4936 208.949 66.2413 185.397 1.12164 185.397" stroke="url(#paint29_linear_2498_17260)" stroke-width="2.44172" stroke-miterlimit="10"/>
<path d="M1119.98 185.449C1046.02 185.449 1005.77 168.67 945.962 190.2C892.672 211.73 833.633 279.859 786.314 309.678C753.809 330.197 717.103 348.189 677.634 347.078C641.591 346.067 608.313 331.915 579.567 312.811C537.333 284.711 503.944 245.188 468.786 209.102C433.628 173.016 340.206 85.986 262.593 94.1735C203.222 100.441 171.934 191.919 123.84 201.926C83.1543 210.416 66.9021 185.55 1.22961 185.55" stroke="url(#paint30_linear_2498_17260)" stroke-width="2.44172" stroke-miterlimit="10"/>
<path d="M1120.09 185.438C1046.79 185.438 1006.77 171.59 948.062 193.827C895.546 216.065 837.723 282.879 790.514 312.395C758.341 332.51 721.967 350.098 682.94 349.087C647.008 348.178 613.729 334.431 584.984 315.63C542.418 287.833 508.919 248.411 473.982 212.123C438.934 175.835 344.406 86.5807 265.798 94.2629C205.432 100.227 173.812 194.03 124.834 203.531C83.5953 211.618 67.4535 185.438 1.00715 185.438" stroke="url(#paint31_linear_2498_17260)" stroke-width="2.44172" stroke-miterlimit="10"/>
<path d="M1120.31 185.474C1047.68 185.474 1007.88 174.557 950.384 197.503C898.753 220.448 842.146 285.847 794.937 315.161C763.096 334.973 727.053 351.954 688.468 351.146C652.757 350.337 619.479 336.994 590.623 318.496C547.836 291.003 514.226 251.682 479.4 215.293C444.573 178.904 348.828 87.2236 269.336 94.6025C207.975 100.263 176.024 196.29 126.161 205.387C84.259 212.968 68.2279 185.474 1.11811 185.474" stroke="url(#paint32_linear_2498_17260)" stroke-width="2.44172" stroke-miterlimit="10"/>
<path d="M1120.43 185.418C1048.45 185.418 1008.87 177.534 952.596 201.085C901.739 224.738 846.348 288.824 799.25 317.834C767.63 337.241 732.029 353.819 693.886 353.111C658.286 352.403 625.008 339.465 596.151 321.271C553.144 294.08 519.312 254.86 484.707 218.269C450.102 181.678 353.252 87.6729 272.654 94.6475C210.298 100.005 178.014 198.356 127.378 206.948C84.9231 214.125 69.0026 185.317 1.22943 185.317" stroke="url(#paint33_linear_2498_17260)" stroke-width="2.44172" stroke-miterlimit="10"/>
<path d="M1120.54 185.408C1049.23 185.408 1009.98 180.455 954.701 204.815C904.728 229.176 850.554 291.947 803.455 320.755C772.167 339.859 736.898 355.931 699.308 355.325C663.818 354.819 630.54 342.285 601.684 324.293C558.344 297.507 524.402 258.287 490.018 221.494C455.524 184.7 357.568 88.3704 275.975 94.9406C212.624 99.9947 180.009 200.57 128.488 208.758C85.4804 215.53 69.5599 185.408 1.12341 185.408" stroke="url(#paint34_linear_2498_17260)" stroke-width="2.44172" stroke-miterlimit="10"/>
<path d="M1120.65 185.442C1050.12 185.442 1010.98 183.421 956.915 208.489C907.826 233.557 854.758 295.014 807.659 323.518C776.703 342.218 741.766 357.785 704.618 357.381C669.349 356.976 636.071 344.847 607.104 327.259C563.543 300.775 529.491 261.657 495.217 224.763C460.944 187.868 361.772 89.2133 279.294 95.3792C214.949 100.13 182.002 203.03 129.596 210.712C86.0359 217.08 70.1153 185.644 1.12604 185.644" stroke="url(#paint35_linear_2498_17260)" stroke-width="2.44172" stroke-miterlimit="10"/>
<path d="M1120.87 185.423C1050.99 185.423 1012.07 186.332 959.227 212.108C910.912 237.884 859.17 297.926 812.072 326.228C781.447 344.625 746.842 359.686 710.136 359.383C674.978 359.08 641.699 347.354 612.733 330.069C568.841 303.889 534.678 264.872 500.625 227.776C466.573 190.679 366.295 89.6993 282.712 95.4609C217.371 100.01 184.093 205.032 130.803 212.31C86.6898 218.274 70.8799 185.524 1.11669 185.524" stroke="url(#paint36_linear_2498_17260)" stroke-width="2.44172" stroke-miterlimit="10"/>
<path d="M1120.99 185.466C1051.78 185.466 1013.08 189.307 961.34 215.891C913.91 242.374 863.274 301.102 816.286 329.102C785.992 347.195 751.719 361.245 715.455 361.549C680.408 361.852 647.129 350.025 618.163 333.044C574.05 307.167 539.665 268.251 505.834 230.952C472.003 193.754 370.509 90.3489 286.041 95.7062C219.706 99.9516 186.095 207.299 131.921 214.072C87.2551 219.631 71.4452 185.567 1.12921 185.567" stroke="url(#paint37_linear_2498_17260)" stroke-width="2.44172" stroke-miterlimit="10"/>
<path d="M1121.09 185.422C1052.54 185.422 1014.18 192.295 963.539 219.486C916.883 246.677 867.573 304.091 820.586 331.787C790.513 349.476 756.682 363.122 720.861 363.425C686.034 363.83 652.756 352.407 623.679 335.729C579.344 310.156 544.85 271.341 511.129 233.941C477.408 196.541 374.919 90.8104 289.346 95.8644C222.015 99.8066 187.963 209.479 133.015 215.746C87.6853 220.901 72.0965 185.523 1.00659 185.523" stroke="url(#paint38_linear_2498_17260)" stroke-width="2.44172" stroke-miterlimit="10"/>
<path d="M1121.31 185.418C1053.43 185.418 1015.29 195.223 965.756 223.121C919.984 251.02 871.891 307.119 824.903 334.613C795.162 351.999 761.663 365.039 726.394 365.544C691.679 366.05 658.4 355.133 629.323 338.657C584.657 313.386 550.051 274.571 516.552 237.07C483.052 199.57 379.347 91.5141 292.89 96.0628C224.564 99.7017 190.18 211.598 134.347 217.461C88.4648 222.212 72.8758 185.418 1.23315 185.418" stroke="url(#paint39_linear_2498_17260)" stroke-width="2.44172" stroke-miterlimit="10"/>
<path d="M1121.42 185.472C1054.2 185.472 1016.28 198.209 967.962 226.815C923.075 255.42 876.087 310.206 829.21 337.397C799.801 354.48 766.633 367.014 731.807 367.62C697.312 368.227 664.033 357.714 634.846 341.541C589.958 316.675 555.132 277.86 521.854 240.258C488.575 202.656 383.654 92.175 296.201 96.3193C226.881 99.655 192.165 213.876 135.448 219.234C89.0126 223.58 73.5342 185.473 1.1176 185.473" stroke="url(#paint40_linear_2498_17260)" stroke-width="2.44172" stroke-miterlimit="10"/>
<path d="M1121.53 185.45C1055.09 185.45 1017.27 201.118 970.176 230.532C926.063 259.846 880.402 313.318 833.524 340.205C804.447 356.883 771.611 369.417 737.227 369.721C702.843 370.024 669.564 360.32 640.376 344.45C595.158 319.888 560.221 281.174 527.163 243.37C494.106 205.565 388.079 92.7593 299.632 96.6003C229.426 99.6328 194.268 216.179 136.777 221.031C89.7892 224.973 74.3108 185.551 1.34142 185.551" stroke="url(#paint41_linear_2498_17260)" stroke-width="2.44172" stroke-miterlimit="10"/>
<path d="M1121.63 185.427C1055.85 185.427 1018.37 204.026 972.267 234.148C929.038 264.27 884.483 316.327 837.716 342.911C808.971 359.286 776.466 371.314 742.524 371.719C708.251 372.123 674.972 362.824 645.785 347.257C600.345 322.998 565.297 284.385 532.35 246.379C499.404 208.372 392.271 93.2413 302.829 96.678C231.628 99.4072 196.138 218.177 137.763 222.625C90.2222 226.163 74.8545 185.427 1.11119 185.427" stroke="url(#paint42_linear_2498_17260)" stroke-width="2.44172" stroke-miterlimit="10"/>
<path d="M1121.87 185.433C1056.75 185.433 1019.49 207.065 974.605 237.793C932.15 268.623 888.921 319.264 842.154 345.646C813.741 361.718 781.568 373.241 748.068 373.747C714.016 374.353 680.737 365.458 651.328 350.094C605.557 326.138 570.399 287.626 537.673 249.518C504.947 211.31 396.709 93.8541 306.271 96.8865C234.076 99.3125 198.254 220.407 138.994 224.349C90.7904 227.483 75.5332 185.433 1.12646 185.433" stroke="url(#paint43_linear_2498_17260)" stroke-width="2.44172" stroke-miterlimit="10"/>
<path d="M1121.98 185.463C1057.52 185.463 1020.49 210.025 976.814 241.462C935.244 272.999 893.231 322.326 846.354 348.506C818.161 364.174 786.43 375.191 753.373 375.899C719.431 376.607 686.153 368.116 656.744 353.055C610.751 329.503 575.372 290.991 542.867 252.682C510.363 214.372 400.908 94.4902 309.476 97.2194C236.285 99.3421 200.021 222.762 139.987 226.198C91.2305 228.928 75.9734 185.564 1.01385 185.564" stroke="url(#paint44_linear_2498_17260)" stroke-width="2.44172" stroke-miterlimit="10"/>
<path d="M1122.08 185.492C1058.29 185.492 1021.47 212.986 978.906 245.231C938.22 277.476 897.313 325.489 850.546 351.366C822.685 366.73 791.286 377.242 758.782 378.051C724.951 378.86 691.672 370.773 662.263 356.016C615.939 332.767 580.559 294.356 548.165 255.844C515.771 217.333 405.212 95.1261 312.894 97.451C238.709 99.2705 202.114 225.015 141.195 227.946C91.8855 230.271 76.7389 185.593 1.00549 185.593" stroke="url(#paint45_linear_2498_17260)" stroke-width="2.44172" stroke-miterlimit="10"/>
<path d="M1122.2 185.402C1059.07 185.402 1022.58 215.827 981.125 248.78C941.213 281.732 901.633 328.431 854.866 354.005C827.336 369.066 796.269 379.073 764.207 379.982C730.597 380.993 697.208 373.311 667.799 358.755C621.253 335.81 585.653 297.5 553.48 258.888C521.307 220.275 409.642 95.7432 316.219 97.5626C241.038 99.0788 204.111 227.047 142.308 229.473C92.4459 231.495 77.2993 185.402 1.01305 185.402" stroke="url(#paint46_linear_2498_17260)" stroke-width="2.44172" stroke-miterlimit="10"/>
<path d="M1122.42 185.399C1060.07 185.399 1023.69 218.756 983.448 252.416C944.421 286.076 906.057 331.461 859.29 356.731C832.092 371.388 801.357 380.89 769.736 382.001C736.237 383.113 702.958 375.836 673.439 361.583C626.672 339.042 590.851 300.733 558.899 261.917C526.947 223.102 414.066 96.246 319.758 97.7623C243.583 98.9752 206.324 229.268 143.637 231.189C93.1111 232.806 78.1855 185.298 1.12541 185.298" stroke="url(#paint47_linear_2498_17260)" stroke-width="2.44172" stroke-miterlimit="10"/>
<path d="M1122.53 185.419C1060.84 185.419 1024.68 221.707 985.547 256.175C947.293 290.543 910.145 334.614 863.489 359.581C836.623 373.934 806.219 382.93 775.041 384.143C741.652 385.356 708.374 378.483 678.854 364.534C631.756 342.296 595.934 304.088 564.093 265.171C532.252 226.255 418.375 96.7708 322.962 98.0849C245.792 98.8935 208.201 231.613 144.63 233.028C93.5509 234.241 78.6255 185.419 1.01256 185.419" stroke="url(#paint48_linear_2498_17260)" stroke-width="2.44172" stroke-miterlimit="10"/>
<path d="M1122.64 185.409C1061.61 185.409 1025.68 224.73 987.756 259.805C950.387 294.88 914.566 337.738 867.799 362.402C841.265 376.452 811.192 385.044 780.457 386.257C747.289 387.672 713.9 381.203 684.381 367.456C636.95 345.622 601.019 307.414 569.398 268.296C537.778 229.177 422.686 97.4691 326.388 98.2778C248.222 98.7832 210.19 233.928 145.844 234.737C94.2129 235.647 79.3979 185.409 1.01103 185.409" stroke="url(#paint49_linear_2498_17260)" stroke-width="2.44172" stroke-miterlimit="10"/>
<path d="M1122.85 185.434C1062.49 185.434 1026.89 227.686 990.071 263.468C953.587 299.251 918.871 340.795 872.215 365.156C846.012 378.903 816.271 386.888 786.089 388.303C753.031 389.819 719.753 383.754 690.123 370.311C642.472 348.781 606.319 310.673 574.92 271.353C543.521 232.133 427.322 97.9991 329.919 98.5046C250.759 98.8078 212.394 236.075 147.275 236.48C95.0904 236.884 80.2754 185.434 1.33573 185.434" stroke="url(#paint50_linear_2498_17260)" stroke-width="2.44172" stroke-miterlimit="10"/>
<path d="M1122.97 185.432C1065.06 185.432 1007.22 252.836 1003.81 256.87C1003.69 257.001 1003.63 257.076 1003.51 257.201C999.87 261.111 921.98 344.393 876.423 367.883C850.441 381.327 821.143 388.807 791.402 390.222C758.566 391.839 725.177 386.179 695.547 373.038C647.674 351.811 611.3 313.805 580.122 274.383C548.945 234.962 431.53 98.604 333.243 98.604C253.087 98.604 214.391 238.095 148.387 238.095C95.5393 238.095 79.6027 185.331 -0.000268486 185.331" stroke="url(#paint51_linear_2498_17260)" stroke-width="2.44172" stroke-miterlimit="10"/>
<defs>
<linearGradient id="paint0_linear_2498_17260" x1="1115.78" y1="181.937" x2="1.00548" y2="181.937" gradientUnits="userSpaceOnUse">
<stop stop-color="#C516E1"/>
<stop offset="1" stop-color="#FF5E3B"/>
</linearGradient>
<linearGradient id="paint1_linear_2498_17260" x1="1115.9" y1="183.471" x2="0.904166" y2="183.472" gradientUnits="userSpaceOnUse">
<stop stop-color="#C516E1"/>
<stop offset="1" stop-color="#FF5E3B"/>
</linearGradient>
<linearGradient id="paint2_linear_2498_17260" x1="1116" y1="184.915" x2="1.00536" y2="184.915" gradientUnits="userSpaceOnUse">
<stop stop-color="#C516E1"/>
<stop offset="1" stop-color="#FF5E3B"/>
</linearGradient>
<linearGradient id="paint3_linear_2498_17260" x1="1116.23" y1="186.337" x2="1.01061" y2="186.337" gradientUnits="userSpaceOnUse">
<stop stop-color="#C516E1"/>
<stop offset="1" stop-color="#FF5E3B"/>
</linearGradient>
<linearGradient id="paint4_linear_2498_17260" x1="1116.34" y1="187.701" x2="1.1278" y2="187.701" gradientUnits="userSpaceOnUse">
<stop stop-color="#C516E1"/>
<stop offset="1" stop-color="#FF5E3B"/>
</linearGradient>
<linearGradient id="paint5_linear_2498_17260" x1="1116.46" y1="189.308" x2="1.01879" y2="189.308" gradientUnits="userSpaceOnUse">
<stop stop-color="#C516E1"/>
<stop offset="1" stop-color="#FF5E3B"/>
</linearGradient>
<linearGradient id="paint6_linear_2498_17260" x1="1116.67" y1="190.629" x2="1.12072" y2="190.629" gradientUnits="userSpaceOnUse">
<stop stop-color="#C516E1"/>
<stop offset="1" stop-color="#FF5E3B"/>
</linearGradient>
<linearGradient id="paint7_linear_2498_17260" x1="1116.78" y1="191.954" x2="0.903799" y2="191.954" gradientUnits="userSpaceOnUse">
<stop stop-color="#C516E1"/>
<stop offset="1" stop-color="#FF5E3B"/>
</linearGradient>
<linearGradient id="paint8_linear_2498_17260" x1="1116.89" y1="193.373" x2="1.11925" y2="193.373" gradientUnits="userSpaceOnUse">
<stop stop-color="#C516E1"/>
<stop offset="1" stop-color="#FF5E3B"/>
</linearGradient>
<linearGradient id="paint9_linear_2498_17260" x1="1117" y1="194.653" x2="1.00878" y2="194.653" gradientUnits="userSpaceOnUse">
<stop stop-color="#C516E1"/>
<stop offset="1" stop-color="#FF5E3B"/>
</linearGradient>
<linearGradient id="paint10_linear_2498_17260" x1="1117.22" y1="196.023" x2="1.23363" y2="196.024" gradientUnits="userSpaceOnUse">
<stop stop-color="#C516E1"/>
<stop offset="1" stop-color="#FF5E3B"/>
</linearGradient>
<linearGradient id="paint11_linear_2498_17260" x1="1117.33" y1="197.264" x2="1.23461" y2="197.264" gradientUnits="userSpaceOnUse">
<stop stop-color="#C516E1"/>
<stop offset="1" stop-color="#FF5E3B"/>
</linearGradient>
<linearGradient id="paint12_linear_2498_17260" x1="1117.44" y1="198.629" x2="1.12353" y2="198.629" gradientUnits="userSpaceOnUse">
<stop stop-color="#C516E1"/>
<stop offset="1" stop-color="#FF5E3B"/>
</linearGradient>
<linearGradient id="paint13_linear_2498_17260" x1="1117.56" y1="199.744" x2="1.13207" y2="199.744" gradientUnits="userSpaceOnUse">
<stop stop-color="#C516E1"/>
<stop offset="1" stop-color="#FF5E3B"/>
</linearGradient>
<linearGradient id="paint14_linear_2498_17260" x1="1117.78" y1="200.939" x2="1.23449" y2="200.939" gradientUnits="userSpaceOnUse">
<stop stop-color="#C516E1"/>
<stop offset="1" stop-color="#FF5E3B"/>
</linearGradient>
<linearGradient id="paint15_linear_2498_17260" x1="1117.89" y1="202.278" x2="1.12365" y2="202.278" gradientUnits="userSpaceOnUse">
<stop stop-color="#C516E1"/>
<stop offset="1" stop-color="#FF5E3B"/>
</linearGradient>
<linearGradient id="paint16_linear_2498_17260" x1="1118" y1="203.609" x2="1.01964" y2="203.609" gradientUnits="userSpaceOnUse">
<stop stop-color="#C516E1"/>
<stop offset="1" stop-color="#FF5E3B"/>
</linearGradient>
<linearGradient id="paint17_linear_2498_17260" x1="1118.22" y1="204.781" x2="1.12047" y2="204.781" gradientUnits="userSpaceOnUse">
<stop stop-color="#C516E1"/>
<stop offset="1" stop-color="#FF5E3B"/>
</linearGradient>
<linearGradient id="paint18_linear_2498_17260" x1="1118.32" y1="205.966" x2="1.22973" y2="205.966" gradientUnits="userSpaceOnUse">
<stop stop-color="#C516E1"/>
<stop offset="1" stop-color="#FF5E3B"/>
</linearGradient>
<linearGradient id="paint19_linear_2498_17260" x1="1118.44" y1="207.313" x2="1.23644" y2="207.313" gradientUnits="userSpaceOnUse">
<stop stop-color="#C516E1"/>
<stop offset="1" stop-color="#FF5E3B"/>
</linearGradient>
<linearGradient id="paint20_linear_2498_17260" x1="1118.55" y1="208.532" x2="1.1206" y2="208.532" gradientUnits="userSpaceOnUse">
<stop stop-color="#C516E1"/>
<stop offset="1" stop-color="#FF5E3B"/>
</linearGradient>
<linearGradient id="paint21_linear_2498_17260" x1="1118.77" y1="209.696" x2="1.12291" y2="209.696" gradientUnits="userSpaceOnUse">
<stop stop-color="#C516E1"/>
<stop offset="1" stop-color="#FF5E3B"/>
</linearGradient>
<linearGradient id="paint22_linear_2498_17260" x1="1118.88" y1="210.911" x2="1.2296" y2="210.911" gradientUnits="userSpaceOnUse">
<stop stop-color="#C516E1"/>
<stop offset="1" stop-color="#FF5E3B"/>
</linearGradient>
<linearGradient id="paint23_linear_2498_17260" x1="1118.99" y1="212.022" x2="1.01427" y2="212.022" gradientUnits="userSpaceOnUse">
<stop stop-color="#C516E1"/>
<stop offset="1" stop-color="#FF5E3B"/>
</linearGradient>
<linearGradient id="paint24_linear_2498_17260" x1="1119.11" y1="213.265" x2="1.239" y2="213.265" gradientUnits="userSpaceOnUse">
<stop stop-color="#C516E1"/>
<stop offset="1" stop-color="#FF5E3B"/>
</linearGradient>
<linearGradient id="paint25_linear_2498_17260" x1="1119.32" y1="214.367" x2="1.33849" y2="214.367" gradientUnits="userSpaceOnUse">
<stop stop-color="#C516E1"/>
<stop offset="1" stop-color="#FF5E3B"/>
</linearGradient>
<linearGradient id="paint26_linear_2498_17260" x1="1119.44" y1="215.509" x2="1.23412" y2="215.509" gradientUnits="userSpaceOnUse">
<stop stop-color="#C516E1"/>
<stop offset="1" stop-color="#FF5E3B"/>
</linearGradient>
<linearGradient id="paint27_linear_2498_17260" x1="1119.55" y1="216.777" x2="1.12365" y2="216.778" gradientUnits="userSpaceOnUse">
<stop stop-color="#C516E1"/>
<stop offset="1" stop-color="#FF5E3B"/>
</linearGradient>
<linearGradient id="paint28_linear_2498_17260" x1="1119.76" y1="217.87" x2="1.11986" y2="217.87" gradientUnits="userSpaceOnUse">
<stop stop-color="#C516E1"/>
<stop offset="1" stop-color="#FF5E3B"/>
</linearGradient>
<linearGradient id="paint29_linear_2498_17260" x1="1119.87" y1="219.084" x2="1.12169" y2="219.084" gradientUnits="userSpaceOnUse">
<stop stop-color="#C516E1"/>
<stop offset="1" stop-color="#FF5E3B"/>
</linearGradient>
<linearGradient id="paint30_linear_2498_17260" x1="1119.98" y1="220.38" x2="1.2296" y2="220.38" gradientUnits="userSpaceOnUse">
<stop stop-color="#C516E1"/>
<stop offset="1" stop-color="#FF5E3B"/>
</linearGradient>
<linearGradient id="paint31_linear_2498_17260" x1="1120.09" y1="221.463" x2="1.00719" y2="221.463" gradientUnits="userSpaceOnUse">
<stop stop-color="#C516E1"/>
<stop offset="1" stop-color="#FF5E3B"/>
</linearGradient>
<linearGradient id="paint32_linear_2498_17260" x1="1120.31" y1="222.678" x2="1.11815" y2="222.678" gradientUnits="userSpaceOnUse">
<stop stop-color="#C516E1"/>
<stop offset="1" stop-color="#FF5E3B"/>
</linearGradient>
<linearGradient id="paint33_linear_2498_17260" x1="1120.43" y1="223.706" x2="1.22948" y2="223.706" gradientUnits="userSpaceOnUse">
<stop stop-color="#C516E1"/>
<stop offset="1" stop-color="#FF5E3B"/>
</linearGradient>
<linearGradient id="paint34_linear_2498_17260" x1="1120.54" y1="224.981" x2="1.1234" y2="224.981" gradientUnits="userSpaceOnUse">
<stop stop-color="#C516E1"/>
<stop offset="1" stop-color="#FF5E3B"/>
</linearGradient>
<linearGradient id="paint35_linear_2498_17260" x1="1120.65" y1="226.245" x2="1.12609" y2="226.246" gradientUnits="userSpaceOnUse">
<stop stop-color="#C516E1"/>
<stop offset="1" stop-color="#FF5E3B"/>
</linearGradient>
<linearGradient id="paint36_linear_2498_17260" x1="1120.87" y1="227.306" x2="1.11669" y2="227.306" gradientUnits="userSpaceOnUse">
<stop stop-color="#C516E1"/>
<stop offset="1" stop-color="#FF5E3B"/>
</linearGradient>
<linearGradient id="paint37_linear_2498_17260" x1="1120.99" y1="228.53" x2="1.12926" y2="228.53" gradientUnits="userSpaceOnUse">
<stop stop-color="#C516E1"/>
<stop offset="1" stop-color="#FF5E3B"/>
</linearGradient>
<linearGradient id="paint38_linear_2498_17260" x1="1121.09" y1="229.562" x2="1.00658" y2="229.562" gradientUnits="userSpaceOnUse">
<stop stop-color="#C516E1"/>
<stop offset="1" stop-color="#FF5E3B"/>
</linearGradient>
<linearGradient id="paint39_linear_2498_17260" x1="1121.31" y1="230.742" x2="1.23314" y2="230.742" gradientUnits="userSpaceOnUse">
<stop stop-color="#C516E1"/>
<stop offset="1" stop-color="#FF5E3B"/>
</linearGradient>
<linearGradient id="paint40_linear_2498_17260" x1="1121.42" y1="231.925" x2="1.11766" y2="231.925" gradientUnits="userSpaceOnUse">
<stop stop-color="#C516E1"/>
<stop offset="1" stop-color="#FF5E3B"/>
</linearGradient>
<linearGradient id="paint41_linear_2498_17260" x1="1121.53" y1="233.116" x2="1.34142" y2="233.116" gradientUnits="userSpaceOnUse">
<stop stop-color="#C516E1"/>
<stop offset="1" stop-color="#FF5E3B"/>
</linearGradient>
<linearGradient id="paint42_linear_2498_17260" x1="1121.63" y1="234.167" x2="1.11119" y2="234.167" gradientUnits="userSpaceOnUse">
<stop stop-color="#C516E1"/>
<stop offset="1" stop-color="#FF5E3B"/>
</linearGradient>
<linearGradient id="paint43_linear_2498_17260" x1="1121.87" y1="235.302" x2="1.12645" y2="235.302" gradientUnits="userSpaceOnUse">
<stop stop-color="#C516E1"/>
<stop offset="1" stop-color="#FF5E3B"/>
</linearGradient>
<linearGradient id="paint44_linear_2498_17260" x1="1121.98" y1="236.557" x2="1.0139" y2="236.557" gradientUnits="userSpaceOnUse">
<stop stop-color="#C516E1"/>
<stop offset="1" stop-color="#FF5E3B"/>
</linearGradient>
<linearGradient id="paint45_linear_2498_17260" x1="1122.08" y1="237.762" x2="1.00548" y2="237.762" gradientUnits="userSpaceOnUse">
<stop stop-color="#C516E1"/>
<stop offset="1" stop-color="#FF5E3B"/>
</linearGradient>
<linearGradient id="paint46_linear_2498_17260" x1="1122.2" y1="238.807" x2="1.01305" y2="238.807" gradientUnits="userSpaceOnUse">
<stop stop-color="#C516E1"/>
<stop offset="1" stop-color="#FF5E3B"/>
</linearGradient>
<linearGradient id="paint47_linear_2498_17260" x1="1122.42" y1="239.931" x2="1.12548" y2="239.931" gradientUnits="userSpaceOnUse">
<stop stop-color="#C516E1"/>
<stop offset="1" stop-color="#FF5E3B"/>
</linearGradient>
<linearGradient id="paint48_linear_2498_17260" x1="1122.53" y1="241.178" x2="1.01256" y2="241.178" gradientUnits="userSpaceOnUse">
<stop stop-color="#C516E1"/>
<stop offset="1" stop-color="#FF5E3B"/>
</linearGradient>
<linearGradient id="paint49_linear_2498_17260" x1="1122.64" y1="242.361" x2="1.0111" y2="242.361" gradientUnits="userSpaceOnUse">
<stop stop-color="#C516E1"/>
<stop offset="1" stop-color="#FF5E3B"/>
</linearGradient>
<linearGradient id="paint50_linear_2498_17260" x1="1122.85" y1="243.517" x2="1.33568" y2="243.517" gradientUnits="userSpaceOnUse">
<stop stop-color="#C516E1"/>
<stop offset="1" stop-color="#FF5E3B"/>
</linearGradient>
<linearGradient id="paint51_linear_2498_17260" x1="1122.97" y1="244.548" x2="-0.000256968" y2="244.548" gradientUnits="userSpaceOnUse">
<stop stop-color="#C516E1"/>
<stop offset="1" stop-color="#FF5E3B"/>
</linearGradient>
</defs>
</svg>
